<svg id="svg2" xmlns:rdf="http://www.w3.org/1999/02/22-rdf-syntax-ns#" xmlns="http://www.w3.org/2000/svg" height="91.251mm" width="193.95mm" version="1.1" xmlns:cc="http://creativecommons.org/ns#" xmlns:dc="http://purl.org/dc/elements/1.1/" viewBox="0 0 687.20883 323.3295">
 <defs id="defs4">
  <filter id="filter4553" style="color-interpolation-filters:sRGB">
   <feTurbulence id="feTurbulence4555" numOctaves="10" seed="10" type="fractalNoise" baseFrequency="0.12 0.02"/>
   <feColorMatrix id="feColorMatrix4557" values="1 0 0 0 0 0 1 0 0 0 0 0 1 0 0 0 0 0 0.7 0 " result="result5"/>
   <feComposite id="feComposite4559" operator="out" in2="result5" in="SourceGraphic"/>
   <feMorphology id="feMorphology4561" operator="dilate" radius="1.3" result="result3"/>
   <feTurbulence id="feTurbulence4563" baseFrequency="0.08 0.05" seed="25" result="result91" numOctaves="8" type="turbulence"/>
   <feDisplacementMap id="feDisplacementMap4565" scale="5" yChannelSelector="G" in2="result91" result="result4" xChannelSelector="R" in="result3"/>
   <feSpecularLighting id="feSpecularLighting4567" lighting-color="#ffffff" specularConstant="1" result="result1" specularExponent="35" in="result4" surfaceScale="2">
    <feDistantLight id="feDistantLight4569" elevation="75" azimuth="235"/>
   </feSpecularLighting>
   <feComposite id="feComposite4571" operator="in" result="result2" in2="result4" in="result1"/>
   <feComposite id="feComposite4573" k4="0" in2="result2" k3="1" k2="1" k1="0" result="result4" in="result4" operator="arithmetic"/>
   <feBlend id="feBlend4575" mode="multiply" in2="result4"/>
  </filter>
  <filter id="filter4877" style="color-interpolation-filters:sRGB">
   <feGaussianBlur id="feGaussianBlur4879" stdDeviation="8" result="result6" in="SourceGraphic"/>
   <feComposite id="feComposite4881" operator="xor" result="result10" in2="SourceGraphic" in="result6"/>
   <feGaussianBlur id="feGaussianBlur4883" stdDeviation="8" result="result2"/>
   <feComposite id="feComposite4885" operator="atop" result="result91" in2="SourceGraphic" in="result10"/>
   <feComposite id="feComposite4887" operator="xor" result="result4" in2="result91" in="result2"/>
   <feGaussianBlur id="feGaussianBlur4889" stdDeviation="4" result="result3" in="result4"/>
   <feSpecularLighting id="feSpecularLighting4891" specularConstant="1.10000002" result="result5" specularExponent="5" surfaceScale="18">
    <feDistantLight id="feDistantLight4893" elevation="55" azimuth="235"/>
   </feSpecularLighting>
   <feComposite id="feComposite4895" k4="0" in2="result5" k3="1.1" k2="0.5" k1="0.5" result="result7" in="result3" operator="arithmetic"/>
   <feComposite id="feComposite4897" operator="atop" result="result8" in2="SourceGraphic" in="result7"/>
  </filter>
  <filter id="filter4709-8" style="color-interpolation-filters:sRGB">
   <feGaussianBlur id="feGaussianBlur4711-9" stdDeviation="1" result="result0" in="SourceGraphic"/>
   <feTurbulence id="feTurbulence4713-5" baseFrequency="0.057" seed="4" result="result1" numOctaves="4" type="turbulence"/>
   <feDisplacementMap id="feDisplacementMap4715-5" scale="0" yChannelSelector="A" in2="result1" result="result91" xChannelSelector="R"/>
   <feComposite id="feComposite4717-3" operator="out" result="result2" in2="result91" in="result0"/>
   <feComposite id="feComposite4719-8" k4="0" in2="result2" k3="1.2" k2="0" k1="0.1" result="result5" in="SourceAlpha" operator="arithmetic"/>
   <feBlend id="feBlend4721-6" result="fbSourceGraphic" in2="result5" mode="multiply"/>
   <feGaussianBlur id="feGaussianBlur4723-0" stdDeviation="3" result="result0" in="fbSourceGraphic"/>
   <feSpecularLighting id="feSpecularLighting4725-3" lighting-color="#fee65d" specularConstant="0.40000001" result="result1" specularExponent="15" in="result0" surfaceScale="3">
    <fePointLight id="fePointLight4727-3" y="-10000" x="-5000" z="20000"/>
   </feSpecularLighting>
   <feComposite id="feComposite4729-6" operator="in" result="result2" in2="fbSourceGraphic" in="result1"/>
   <feComposite id="feComposite4731-1" k4="0" in2="result2" k3="3.5" k2="2.5" k1="-1" result="result4" in="fbSourceGraphic" operator="arithmetic"/>
   <feBlend id="feBlend4733-8" mode="multiply" in2="result4"/>
  </filter>
 </defs>
 <g id="layer1" transform="translate(-12.705 -355.69)">
  <text id="text3336" style="font-size:40px;font-weight:500;letter-spacing:0px;line-height:125%;word-spacing:0px;font-family:&apos;Samyak Tamil&apos;;fill:#000000" xml:space="preserve" y="705.21936" x="44.285717"><tspan id="tspan3338" x="44.285717" style="font-size:180px;font-family:&apos;Ubuntu Mono&apos;;font-weight:normal" y="705.21936"/></text>
  <path id="path3362" style="fill:#1a1a1a" d="m154.67 495.05c-0.0381-0.3978 0.0181-0.81637-0.11433-1.1934-0.94423-2.6877-4.407-4.5237-6.6267-5.7482-4.3671-2.4091-6.2572-2.9852-10.976-4.8714-9.9947-3.7344-20.489-5.7188-31.075-6.7489-4.3393-0.39125-8.6958-0.37091-13.046-0.28334-1.4171 0.22498-3.0041-0.23701-4.3873 0.24097-0.29655 0.10247-1.098 0.60782-0.82448 0.45409 4.9346-2.7737 9.8719-5.5426 14.808-8.3139-3.0248 2.1644-4.5003 5.7937-5.8292 9.1406-1.4849 3.8015-2.1999 7.8006-2.5791 11.844-0.21927 2.8935-0.19468 5.7975-0.212 8.6971 0.0606 0.44998 0.0305 0.92184 0.18183 1.3499 0.69069 1.9543 2.9838 3.3691 4.6176 4.3642 2.2647 1.3795 4.3508 2.275 6.7628 3.4125 9.9398 4.1712 20.361 7.014 30.719 9.925 5.5571 1.595 11.238 2.9923 16.404 5.6511 1.7981 1.1358 3.5279 2.4031 5.1531 3.7779 1.0887 0.7424 1.607 1.7118 1.875 2.976 0.2219 1.4106 0.13436 2.8508 0.0981 4.2724-0.0262 0.91076-0.0226 2.388-0.27837 3.2219-1.583 5.1612-7.458 8.5624-11.563 11.477-13.714 8.819-27.679 17.371-42.395 24.421-9.1408 4.1313-18.946 6.2948-28.811 7.8069-5.3461 0.76377-10.738 1.0512-16.132 1.1395-2.5904 0.0145-5.1807-0.0165-7.7711-0.0202-1.5338-0.00087-3.0676 0.001-4.6012 0.0215-0.49786-0.15969-0.98034-0.35865-1.4574-0.57104l15.321-10.345c0.35396 0.0863 0.69417 0.16287 1.0603 0.0772 1.5028 0.0256 3.0058 0.0371 4.5087 0.0616 2.5398 0.0403 5.0797 0.084 7.6198 0.0887 5.1804-0.0148 10.363-0.26782 15.498-0.9881 9.7593-1.5044 19.403-3.8257 28.354-8.1169 1.4805-0.73125 2.9737-1.4372 4.4415-2.1937 4.4797-2.3089 14.026-7.8329-5.8668 3.6495-1.564 0.90273 3.1081-1.8394 4.6543-2.7723 4.9858-3.008 4.5786-2.7914 9.4893-5.924 3.0669-2.1043 5.0672-3.3346 7.8255-5.7279 1.1093-0.96252 2.8658-2.5917 3.5204-4.0853 0.38733-0.88384 0.27256-1.9812 0.25133-2.9064-0.0248-1.3168-0.0212-2.6343-0.0689-3.9504-0.0747-0.90129-0.43006-1.3129-1.1734-1.8689-1.5138-1.2727-3.0487-2.5416-4.7515-3.5558-4.9127-2.5902-10.287-4.1351-15.562-5.7995-10.385-3.1856-20.909-6.014-31.012-10.038-4.0563-1.8361-10.895-4.4742-12.812-8.9317-0.2182-0.50739-0.22692-1.0811-0.34039-1.6216-0.02663-2.9623-0.0154-5.927 0.20839-8.8829 0.3694-4.1916 1.032-8.3541 2.4769-12.327 1.2438-3.5866 2.711-7.1337 5.1225-10.112 14.364-8.1975 12.043-9.9125 22.201-9.7471 4.2557 0.0293 8.5101 0.25502 12.736 0.78181 10.487 1.4662 20.851 3.7902 30.795 7.488 4.5172 1.7684 7.2096 2.684 11.485 4.8785 3.0502 1.5655 6.4722 3.3996 8.062 6.6352 0.21994 0.44762 0.26555 0.96146 0.39832 1.4422l-16.384 8.348z"/>
  <path id="path3364" style="fill:#1a1a1a" d="m182.91 516.78c-3.6481 10.481-6.1536 21.323-8.6759 32.118-1.8119 8.103-3.5788 16.229-4.813 24.444-0.0157 0.22482-0.63735 4.4184-0.35111 4.4386 0.28034 0.0198 0.54452-0.14142 0.82105-0.19151 0.7535-0.13647 1.5117-0.24526 2.2676-0.36789 1.1499-0.40144 2.3311-0.72229 3.4496-1.2043 1.4979-0.64553 5.7667-3.0386 4.3848-2.172-3.1311 1.9638-6.2703 3.9618-9.6442 5.4706-2.0353 0.91017 3.7591-2.4 5.5977-3.661 4.9561-3.3992 6.5428-4.7442 11.311-8.4443 7.0607-5.7136 13.895-11.757 19.977-18.519 3.2221-3.5829 3.7786-4.4744 6.5776-8.1819 3.6322-4.9972 6.35-10.482 7.671-16.515 0.40457-2.0085 0.49032-4.049 0.41919-6.0892-0.0254-0.39223-0.0458-0.78465-0.0731-1.1768l16.43-8.4772c0.0135 0.4121 0.0339 0.82387 0.0451 1.2361 0.054 2.2261-0.11946 4.4579-0.53321 6.6468-1.4556 6.6073-4.0412 11.968-7.994 17.502-2.805 3.7145-3.5842 4.8947-6.7817 8.475-6.1199 6.8526-13 12.988-20.073 18.831-4.9679 3.9356-6.0181 4.8756-11.152 8.5195-1.7827 1.2653-3.5404 2.5755-5.4155 3.6993-6.5831 3.9456-13.228 7.7903-19.947 11.501-1.5252 0.84248-3.1299 1.547-4.7651 2.1489-1.2762 0.46976-2.6272 0.70378-3.9408 1.0557-2.1871-0.0272-3.0815 0.45005-4.6838-1.0981-1.0337-0.99871 0.16257-4.3262 0.23561-5.5332 1.6212-8.3788 3.7261-16.656 5.6526-24.968 2.4964-10.549 5.0083-21.095 7.4957-31.646l16.508-7.8403z"/>
  <path id="path3366" style="fill:#1a1a1a" d="m266.84 519.24c-7.9321 12.321-16.292 24.358-24.915 36.203-5.0845 6.8376-10.093 13.735-15.325 20.461-0.52372 0.12984-1.4841 2.2814-1.9888 2.5675-0.22362 0.12675-0.25471-0.68679-0.0119-0.77107 0.40925-0.14203 0.86617 0.0199 1.2993 0.0298 6.0681-0.30231 11.845-2.4035 17.553-4.3127 8.0416-2.8451 16.173-5.3954 24.376-7.729 4.8405-1.4832 9.7333-2.8218 14.749-3.5506 1.7302-0.0336 3.3803-0.4471 5.0575-0.81555 0.81685-0.1441 1.643-0.1264 2.4681-0.12818 0.0956-0.0362 1.2077 0.09 1.2305 0.008 0.0403-0.14592-0.07-0.29457-0.10496-0.44186l-14.449 11.597c-0.53154-0.33708-0.97408-0.31146-1.6018-0.2482-0.75889 0.0471-1.508 0.17636-2.2483 0.34855-1.635 0.29505-3.2823 0.41282-4.9313 0.60928-4.7927 0.74768-9.4771 2.0066-14.129 3.3666-8.2165 2.3309-16.33 4.9642-24.377 7.8271-5.9678 1.966-12.081 4.1132-18.445 4.0098-0.56615-0.10163-1.1783-0.0593-1.6985-0.3049-0.71087-0.33566-1.685-1.2382-1.6066-2.1799 0.0383-0.46007 2.0299-2.4673 2.2401-2.8011 5.7831-6.7735 11.185-13.858 16.608-20.92 8.5172-11.347 16.889-22.914 23.598-35.444l16.653-7.3808z"/>
  <path id="path3368" style="fill:#1a1a1a" d="m265.45 559.08c0.25928-0.98598 0.48858-1.9803 0.77785-2.9579 2.1313-7.2027 1.694-4.6618 3.9605-13.182 2.9948-11.259 5.2443-22.663 7.4327-34.098 3.5343-20.425 5.9208-41.023 8.5094-61.583 0.78469-6.6645 1.9442-13.274 3.0878-19.883-0.0448-0.39284 0.20375-0.76164 0.20285-1.1513-0.00028-0.11727-0.17951-0.29319-0.0738-0.34397 13.51-6.4903 16.19-13.743 16.798-6.9655 0.0241 0.52856-0.01 1.0562-0.0137 1.5846-0.0166 0.4698-0.0248 0.9404-0.0185 1.4106 0.007 0.52287-0.0158 1.0456-0.0156 1.5686 0.0344 1.0205-0.0272 2.0109-0.40749 2.9668-0.32968 0.57789-0.68705 1.0925-1.1631 1.567l-16.841 7.6032c0.10553-0.39592 0.27463-0.88997 0.57282-1.1958 0.0846-0.0868 0.2365-0.0874 0.31727-0.17784 0.0961-0.10759 0.12619-0.25949 0.18928-0.38923 0.70142-0.60767 0.94781-1.0175 0.85948-1.9806 0.00003-0.51904-0.0237-1.0379-0.0155-1.5568 0.008-0.48179 0.002-0.96367 0.002-1.4455 0.019-0.50937 0.023-1.0185 0.0589-1.5272 0.51381-6.741-4.1123 1.8598 16.664-8.8919 0.0749-0.0388-0.14867-0.17542-0.2183-0.12785-0.3346 0.22863-0.0219 0.99956-0.4284 1.1378-1.9882 6.6688-3.2505 13.546-4.4756 20.385-3.3905 20.702-6.2053 41.492-9.6156 62.191-1.9708 11.265-3.9912 22.521-6.3608 33.711-2.6496 12.512-0.76452 2.8766-2.8804 12.61-0.1832 0.84274-0.32221 1.6945-0.48332 2.5418l-16.422 8.1806z"/>
  <path id="path3370" style="fill:#1a1a1a" d="m341.27 491c-6.233 3.6154-11.605 8.4436-16.988 13.179-3.196 2.9278-6.4666 5.7746-9.6375 8.7298-5.3026 5.6709-7.8813 5.5266-18.041 11.49-0.15105 0.0342-1.3004-0.124-1.3178-0.0998-0.0722 0.10051-0.0892 0.43134 0.0188 0.37081 5.2301-2.9323 10.35-6.057 15.525-9.0855-0.23438 0.0508-0.53469 0.10326-0.52991 0.35162 0.0743 1.4576-0.0151 2.9208-0.0506 4.3788-0.4804 6.4002 2.3144 12.225 5.1681 17.766 3.7424 6.5814 8.5183 12.477 13.456 18.185 3.7841 4.2122 7.6934 8.3041 11.328 12.648 2.1336 2.4676 4.1234 5.0464 6.0311 7.6904 1.1183 1.3477 1.8166 2.9567 2.705 4.4491 0.34894 0.37956 1.0909 1.6409 1.5672 1.7453 0.40831 0.0983 0.78498-0.021 0.95765-0.39723-24.938 15.349-17.776 11.211-12.629 5.9886 2.4936-2.5302 5.0075-5.0332 7.548-7.5165 5.7836-5.5366 11.868-10.737 18.064-15.802 2.8901-2.3848 5.8126-4.7349 8.8293-6.9585 6.5723-5.5481 3.1425-2.4864 18.479-11.269 6.9067-0.63334-0.7626 0.92538-14.71 8.8344-0.10232 0.058 0.23215-0.0945 0.34647-0.0668 0.27508-0.0942 0.16981-0.32381 0.14447-0.55445-0.0691-1.0828-0.0201-2.1644-0.0604-3.2505-0.27543-0.82538-0.47213-1.6813-0.82628-2.4761-1.4147-3.1749-3.5319-6.5488-5.3226-9.4529-3.7084-6.0143-7.5594-11.936-11.257-17.958-4.959-7.603-8.7216-15.882-13.276-23.712-1.2182-2.0504-2.471-4.1094-3.9552-5.9832-0.45969-0.67804-0.90701-0.93643-1.6846-0.97288-0.66982 0.0662-0.99662 0.17613-1.5701-0.21725l15.287-10.421c0.36377-0.32129 1.1414 0.10164 1.5454 0.19864 0.95553 0.4511 1.6819 1.1659 2.2849 2.0287 1.3774 2.0472 2.5274 4.245 3.6407 6.4432 4.0894 8.0644 7.5042 16.476 12.364 24.141 3.6404 6.0561 7.4101 11.989 11.366 17.846 1.6016 2.3714 4.6469 6.6559 6.1888 9.3107 0.51361 0.88437 0.90447 1.8346 1.3567 2.7518 0.21241 1.0609 0.39176 2.0865 0.35713 3.1678 0.0252 0.423 0.16085 0.82589 0.18479 1.2529 0.0103 0.11839 0.1313 0.61609-0.084 0.74484-5.7956 3.4668-11.241 6.4874-16.794 9.8323 5.1593-2.983 10.319-5.966 15.478-8.949-0.15496 0.073-0.70989 0.32721-0.82558 0.41483-0.59321 0.44928-1.0071 1.1379-1.6559 1.5275-3.0499 2.4528-6.4068 4.5315-9.3546 7.1233-6.2643 5.022-12.448 10.14-18.254 15.694-2.4267 2.4064-4.8596 4.7965-7.1824 7.304-0.48402 0.52252-0.97011 1.0434-1.4406 1.5781-0.30386 0.34535-0.48934 0.8216-0.88183 1.0615-5.3961 3.2979-10.944 6.3404-16.416 9.5106-0.7096-0.21436-1.3809-0.41604-1.9129-0.97114-0.67844-0.72195-1.3084-1.5172-1.832-2.3556-0.84867-1.4621-1.47-3.0549-2.5242-4.3948-1.7728-2.6651-3.7494-5.1844-5.7274-7.6989-3.5366-4.3867-7.3866-8.4964-11.057-12.77-4.9561-5.8607-9.7896-11.876-13.571-18.583-2.9871-5.6627-6.0966-11.681-6.0993-18.236-0.0428-1.3663-0.0862-2.7342-0.16712-4.0985-0.0853-0.58628-0.23408-1.1555-0.0748-1.7544 5.335-3.2035 10.609-6.5111 16.005-9.6104 0.0943-0.0541 0.6839 0.50115 1.2177-0.33249-5.1644 3.039-10.329 6.078-15.493 9.117 0.36905-0.25303 0.79264-0.51823 1.102-0.84198 1.522-1.593-0.78087 0.51949 1.114-1.162 3.1403-3.278 6.9753-5.8541 10.178-9.0744 5.289-4.5664 10.404-9.3747 16.259-13.232l17.105-6.5991z"/>
  <path id="path3372" style="fill:#1a1a1a" d="m453.33 400.23c-6.8479 17.771-11.821 36.194-16.678 54.587-3.6585 14.617-7.1727 29.282-10.23 44.039-0.68735 3.3175-3.0423 15.571-3.7255 19.109-2.5161 12.284-4.5486 24.666-7.2321 36.915-0.84205 3.1016-1.3094 6.307-2.2149 9.3917-1.4104 6.4525-14.845 15.234-17.522 8.1548-0.25871-0.68414-0.22922-1.1563-0.28291-1.8979 0.079-0.54777 0.0649-1.1173 0.23694-1.6433 1.2072-3.6914 4.453-6.8839 7.0145-9.5934 4.1367-4.3756 7.5212-7.4839 11.953-11.718 10.645-10.028 21.757-19.554 32.207-29.79 5.3039-5.1956 6.8635-6.9552 11.77-12.177 5.7357-6.0371 10.567-12.803 15.346-19.592 1.435-2.1615 3.216-4.0533 4.813-6.087 0.40438-0.39877 0.7191-0.86793 1.0885-1.2968l17.08-7.0009c-0.46742 0.34358-0.93578 0.63622-1.2132 1.1735-1.1712 1.128 0.11788-0.16534-1.1273 1.2838-1.3713 1.596-2.9074 3.0579-4.1241 4.7876-5.2816 6.9394-10.322 14.083-16.476 20.312-5.2793 5.4936-6.6273 6.9873-12.307 12.489-10.426 10.101-21.431 19.581-31.893 29.645-4.6897 4.5992-6.8964 6.6393-11.181 11.258-2.4508 2.6419-5.7062 5.9848-6.9062 9.5116 0.0263 0.41493 0.0806 0.82914 0.0774 1.2449-0.00079 0.0996-0.0262-0.32547-0.11306-0.27672-18.399 10.32-21.02 11.431-15.177 8.913 0.49175-0.85392 0.72126-1.6245 0.99988-2.5783 0.67149-2.2987 1.3983-4.5818 2.0415-6.8889 3.3998-12.331 5.6926-24.937 8.4536-37.419 1.3326-6.4144 2.5752-12.848 3.949-19.253 3.1793-14.824 6.9509-29.519 10.534-44.248 2.4078-9.4226 3.4168-13.528 5.952-22.841 0.94574-3.4743 1.9355-6.9364 2.9033-10.405 0.86257-3.0351 1.7562-6.0615 2.5877-9.1053 1.0277-3.7619 1.9096-7.5626 2.9646-11.317l16.431-7.6866z"/>
  <path id="path3374" style="fill:#1a1a1a" d="m426.37 496.93c10.118 13.367 22.993 24.301 35.283 35.592 10.177 9.2767 19.957 18.952 29.324 29.042 5.0754 5.486 10.239 10.879 15.894 15.773 2.2985 2.2312 5.1076 3.8287 7.5532 5.8654 0.72128 0.54082 0.3778 0.29175 1.0278 0.75087 0 0-15.596 9.8312-15.596 9.8312-0.63074-0.5325-0.29502-0.24659-1.0061-0.859-2.3888-2.0595-4.9543-3.9166-7.1932-6.1522-5.4823-5.1055-10.556-10.605-15.511-16.22-9.0363-10.221-18.41-20.131-28.395-29.44-12.288-11.53-24.877-22.741-36.758-34.699 0 0 15.378-9.484 15.378-9.484z"/>
  <path id="path3376" style="fill:#1a1a1a" d="m544.12 469.01c-4.6288 6.1048-9.0377 12.361-13.207 18.787-3.4875 5.4581-6.8608 10.99-9.9764 16.669-1.333 2.5499-2.7953 5.0271-4.2556 7.5051-0.69459 1.1848-1.3847 2.3686-1.8121 3.6778-0.22837 0.63722-0.59367 1.2236-0.77877 1.8762-0.1537 0.55525-0.12867 1.1378-0.1401 1.7084 0.01 0.57243 0.008 1.1447-0.002 1.7172-0.20145 2.6766 0.16573 3.3197 1.8179 5.5594 0.63195 0.66181 1.2436 1.3437 1.8959 1.9854 1.6473 1.6207 3.8504 3.5406 5.5252 5.0855 3.3901 3.1271 6.7162 6.3244 10.049 9.5122 5.2635 5.1056 10.285 10.47 14.886 16.181 2.1482 2.6069 4.0206 5.4186 5.9426 8.191 0.94247 1.3832 1.6929 2.8812 2.6127 4.2778 0.65415 0.81322 1.2544 1.647 1.8166 2.5258-0.0392-0.68375 0.73182 1.7684 0.65511 1.0228-0.58687-5.7041-10.271 5.1053-15.483 7.4974-0.77328 0.35495 0.96312-1.4029 1.4447-2.1044 5.0067-8.3382 10.823-16.141 16.28-24.18 1.7006-2.505 9.6758-14.636 11.308-17.115 9.4286-14.33 19.652-28.106 29.879-41.869 3.2428-4.3988 6.5615-8.7447 9.7074-13.214 0 0 16.648-7.2135 16.648-7.2135-3.4252 4.668-7.1895 9.084-10.696 13.691-10.662 13.747-21.208 27.598-30.782 42.138-3.7199 5.678-7.3808 11.395-11.115 17.063-5.0728 7.7004-10.522 15.195-14.8 23.387-0.34174 0.72173-0.3699 1.7089-1.0252 2.1652-8.7591 6.0994-12.176 14.533-17.277 9.1392-0.30332-0.32075-0.40679-0.7593-0.68658-1.095-0.56747-0.86883-1.1538-1.715-1.7674-2.5531-0.89511-1.4022-1.6177-2.9054-2.5064-4.3124-1.7906-2.7951-3.5546-5.6105-5.5643-8.2578-4.3483-5.7668-9.1546-11.183-14.343-16.208-3.3317-3.1789-6.6693-6.3425-10.135-9.3769-1.1317-0.99098-4.6279-3.9362-5.8293-5.0364-0.73578-0.67374-1.4308-1.3907-2.1462-2.0861-1.6897-2.0725-2.971-3.657-2.7783-6.4056-0.0123-0.57054-0.0198-1.141-0.0157-1.7117-0.0133-0.66313-0.00005-1.3265-0.003-1.9897 0.0732-0.79464 0.22076-1.5926 0.64661-2.2849 0.68714-1.2548 0.87066-2.7858 1.8302-3.9212 1.4266-2.5918 3.1894-4.9871 4.5422-7.6241 3.317-5.7451 6.7719-11.407 10.39-16.969 4.0266-6.2669 8.2491-12.394 12.503-18.507 0 0 16.745-7.3265 16.745-7.3265z"/>
  <path id="path3661" style="fill:#a02c2c" d="m13.611 575.99-0.90608-1.3417c44.821 28.792 126.84 37.292 134.46 86.375 0.47274 3.045-40.578-65.252 19.475-44.138 72.628 25.536 187.14 16.219 282.97 0.68429 23.998-3.8903 158.08-38.486 197.64-59.394 17.58-9.2916 44.502-43.418 16.791-130.09-2.6365-8.246-106.19-32.588-106.19-32.588 2.8107-17.344 138.56 97.879 142.01 150.61 3.2281 49.362-173.79 126.96-173.63 126.96 0.30641 0 13.206-30.418 58.707-65.294 30.264-23.198 132.35-20.846 111.33-2.9335l-75 63.915-1.6071 0.31062c-0.88393 0.17085-116.84 2.286-257.68 4.7003s-263.56 4.2983-272.68 4.8171l-7.5158 0.42743c-44.803-18.01-51.701-71.47-68.183-103.03z"/>
  <path id="rect3702" style="filter:url(#filter4553);fill:#1a1a1a" d="m62.124 379.1 76.772 2.5254 57.579-2.0203v15.657l-58.099 1.0822-75.746-1.5872z" transform="matrix(.99297 -.11834 .11834 .99297 -58.503 46.918)"/>
  <path id="rect3706" style="filter:url(#filter4877);fill:#999" d="m205.82 381.12h18.94c32.493 2.1455 66.038 2.6822 98.489 2.0298 16.923-0.3402 40.622-0.14351 65.66-0.19032 28.452-0.0532 21.536-0.17904 34.101-0.042 8.5307 0.093 25.672 1.0274 68.935-2.05l21.718-3.0304-4.7303 8.6663-5.8763 4.4657-9.5965 3.283c-89.093 3.129-178.69 5.8303-267.19 0h-20.708z" transform="matrix(.99297 -.11834 .11834 .99297 -58.503 46.918)"/>
  <path id="rect3704-7" style="filter:url(#filter4709-8);fill:#808080" d="m204.38 364.57 3.0304 1.2627-0.50508 43.437-3.5355 2.5254-6.7182-15.662 0.15217-16.41z" transform="matrix(.99297 -.11834 .11834 .99297 -58.503 46.918)"/>
 </g>
</svg>
